<?xml version="1.0" encoding="utf-8"?>
<!-- Generator: Adobe Illustrator 15.0.0, SVG Export Plug-In  -->
<!DOCTYPE svg PUBLIC "-//W3C//DTD SVG 1.1//EN" "http://www.w3.org/Graphics/SVG/1.1/DTD/svg11.dtd" [
	<!ENTITY ns_flows "http://ns.adobe.com/Flows/1.0/">
]>
<svg version="1.1"
	 xmlns="http://www.w3.org/2000/svg" xmlns:xlink="http://www.w3.org/1999/xlink" xmlns:a="http://ns.adobe.com/AdobeSVGViewerExtensions/3.0/"
	 x="0px" y="0px" width="400px" height="500px" viewBox="0 0 400 500" overflow="visible" enable-background="new 0 0 400 500"
	 xml:space="preserve">
<defs>
</defs>
<path d="M210.482,269.852h7.729l-22.34,49.743l-23.159-49.743h7.608"/>
<polygon points="196.542,415.266 180.937,403.943 180.937,323.399 189.809,309.099 201.307,309.099 209.938,323.399 
	209.938,403.943 "/>
<path fill="#B25909" stroke="#B25909" stroke-width="0.6072" stroke-miterlimit="10" d="M209.979,220.96
	c1.651-1.236,3.502-0.825,5.021-1.52c1.592-0.728,3.098-1.922,4.797-2.845c3.905-2.124,8.369-4.429,13.115-6.178
	c2.21-0.816,4.695-1.939,7.372-2.443c1.916-0.361,3.56-0.858,5.381-1.041c0.562-0.056,2.836,0.009,3.049-0.041
	c2.397-0.562,6.263-0.053,9.507,0.354c7.609,0.957,16.051,2.582,24.211,3.542c8.244,0.97,16.389,2.273,24.703,3.171
	c2.178,0.237,4.03,0.332,6.458,0.397c1.777,0.048,2.544,0.055,5.738-0.561c2.134-0.412,6.442-1.655,8.339-3.257
	c2.973-2.511,4.207-6.37,5.021-9.741c0.414-1.726,1.014-2.923,1.166-4.613c0.024-0.292,0.682-9.745,1.028-11.985
	c6.039-3.645,11.578-4.635,18.249-5.446c4.985-0.607,13.15-1.627,16.68,1.708c1.66,1.571,2.076,4.541,3.183,7.333
	c5.133,12.963,9.049,23.262,7.399,35.572c-0.19,1.424-0.328,3.484-0.808,5.092c-1.479,4.973-3.832,10.135-12.776,14.804
	c-1.26,0.657-4.111,1.155-6.367,1.778c-6.467,1.785-10.799,1.588-17.082,0.837c-3.416-0.409-13.1-2.64-14.707-3.187
	c-0.644-0.22-1.772-0.42-2.912-0.809c-2.492-0.848-6.883-1.96-9.953-3.008c-0.497-0.171-4.641-2.061-5.693-2.463
	c-1.013-0.386-1.837-0.314-2.916-0.807c-2.59-1.182-5.609-2.158-8.607-3.27c-1.965-0.729-43.358-13.482-48.916-14.938
	c-0.607-0.159-1.021,0.04-1.703-0.218c-0.85-0.323-1.645-0.374-2.916-0.808c-1.066-0.364-3.553-0.49-5.11-0.657
	c-1.11-0.118-4.935,0.818-6.726,1.301c-5.256,1.414-9.04,4.99-13.818,7.418c-3.256,0.415-7.972,2.869-9.584,0.396
	C209.418,224.249,209.587,222.257,209.979,220.96z"/>
<path fill="none" stroke="#05C9C9" stroke-width="2.5961" stroke-linecap="round" stroke-linejoin="round" d="M389.367,412.609
	c0-2.137,0.007-4.76-0.002-7.786"/>
<path fill="none" stroke="#05C9C9" stroke-width="3" stroke-linecap="round" stroke-linejoin="round" stroke-dasharray="15.571,15.571" d="
	M389.316,389.628c-1.068-44.154-7.817-122.028-48.065-122.028h-99.313"/>
<path fill="none" stroke="#05C9C9" stroke-width="3" stroke-linecap="round" stroke-linejoin="round" d="M233.938,267.6h-7.869
	c2.399-1,4.809-2.039,7.141-3.201"/>
<path fill="none" stroke="#05C9C9" stroke-width="2.5961" stroke-linecap="round" stroke-linejoin="round" stroke-dasharray="15.4265,15.4265" d="
	M246.451,256.195c11.723-7.991,22.232-18.089,31.066-28.771c18.125-21.92,29.191-51.167,29.191-83.289
	c0-67.994-49.585-123.111-110.756-123.111S85.198,76.142,85.198,144.136c0,31.012,10.316,59.346,27.341,80.993
	c10.713,13.621,24.085,26.29,39.215,35.221"/>
<path fill="none" stroke="#05C9C9" stroke-width="3" stroke-linecap="round" stroke-linejoin="round" d="M158.577,264.406
	c2.333,1.16,4.654,2.193,7.056,3.193h-7.696"/>
<path fill="none" stroke="#05C9C9" stroke-width="3" stroke-linecap="round" stroke-linejoin="round" stroke-dasharray="15.7819,15.7819" d="
	M141.937,267.6H50.656c-52.139,0-50.104,87.678-48.619,129.717"/>
<path fill="none" stroke="#05C9C9" stroke-width="2.5961" stroke-linecap="round" stroke-linejoin="round" d="M2.375,404.825
	c0.099,3.025,0.166,5.648,0.166,7.784"/>
<path fill="#FFFFFF" d="M181.067,139.005c0,18.469-19.232,37.481-42.957,37.481c-23.723,0-42.955-14.973-42.955-33.441
	c0-18.47-4.585-30.139,37.743-29.58C156.621,113.778,181.067,120.536,181.067,139.005"/>
<path fill="#FFFFFF" d="M257.292,112.454c-23.722,0.313-48.166,7.073-48.166,25.541c0,18.469,19.229,37.481,42.955,37.481
	c23.724,0,42.956-14.973,42.956-33.442C295.038,123.565,299.621,111.896,257.292,112.454z"/>
<path d="M310.271,115.428l-0.318-0.319c-1.605-0.642-2.891-0.948-4.812-1.284c-10.496-1.829-21.445-2.225-31.422-2.242
	c-9.623-0.019-23.435-0.467-33.025,0.321c-19.558,1.602-28.102,7.599-45.095,10.164c-16.994-2.565-25.536-8.562-45.095-10.164
	c-9.593-0.788-23.402-0.34-33.025-0.321c-9.977,0.018-20.926,0.414-31.424,2.242c-1.921,0.336-3.206,0.643-4.811,1.284l-0.32,0.319
	c0,2.887-0.32,5.771-0.96,8.658l0.64,0.642c3.528,1.923,8.017,5.771,9.941,10.903c1.282,3.204,1.923,7.694,2.564,11.221
	c1.283,7.695,4.193,14.719,9.62,18.918c15.39,11.909,40.399,13.145,59.316,7.375c13.468-3.849,16.674-15.07,20.842-27.254
	c1.923-5.453,3.733-16.447,12.711-16.126c8.978-0.321,10.788,10.674,12.713,16.126c4.168,12.184,7.371,23.405,20.84,27.254
	c18.918,5.771,43.929,4.534,59.317-7.375c5.427-4.2,8.337-11.223,9.619-18.918c0.642-3.527,1.282-8.017,2.565-11.221
	c1.925-5.132,6.412-8.979,9.938-10.903l0.642-0.642C310.591,121.199,310.271,118.314,310.271,115.428z M178.222,135.139
	c-0.412,6.523-1.879,12.302-5.007,17.538c-3.442,5.854-8.448,13.245-15.333,15.709c-7.197,2.772-19.401,3.382-26.91,1.843
	c-8.449-1.54-21.173-3.351-26.911-9.867c-5.336-6.061-6.259-13.229-7.197-21.547c-0.939-7.083-0.313-16.632,6.884-20.02
	c5.945-3.082,13.995-1.665,20.964-2.456C132.953,116.339,179.473,115.282,178.222,135.139z M293.62,138.815
	c-0.937,8.318-1.858,15.486-7.195,21.547c-5.737,6.516-18.462,8.327-26.911,9.867c-7.51,1.539-19.713,0.929-26.91-1.843
	c-6.883-2.464-11.891-9.855-15.334-15.709c-3.127-5.236-4.594-11.015-5.006-17.538c-1.25-19.856,45.271-18.799,53.508-18.799
	c6.972,0.791,15.021-0.625,20.967,2.456C293.936,122.183,294.559,131.732,293.62,138.815z"/>
<path fill="none" stroke="#000000" stroke-width="2.5961" stroke-miterlimit="10" d="M169.636,46.552
	c24.663-20.769,71.394-28.558,101.25-20.769"/>
<path fill="none" stroke="#000000" stroke-width="2.5961" stroke-miterlimit="10" d="M172.907,34.715
	c14.162-13.978,43.829-24.938,62.575-21.6"/>
<path fill="none" stroke="#000000" stroke-width="2.0614" stroke-miterlimit="10" d="M175.27,23.174
	C185.342,11,207.904-0.028,222.98,1.112"/>
<polygon fill="#961905" points="133.919,267.387 196.329,340.435 261.016,268.1 325.919,268.1 326.193,418.589 63.937,419.099 
	63.937,267.225 "/>
</svg>
