<?xml version="1.0" encoding="utf-8"?>
<!-- Generator: Adobe Illustrator 15.0.0, SVG Export Plug-In  -->
<!DOCTYPE svg PUBLIC "-//W3C//DTD SVG 1.1//EN" "http://www.w3.org/Graphics/SVG/1.1/DTD/svg11.dtd" [
	<!ENTITY ns_flows "http://ns.adobe.com/Flows/1.0/">
]>
<svg version="1.1"
	 xmlns="http://www.w3.org/2000/svg" xmlns:xlink="http://www.w3.org/1999/xlink" xmlns:a="http://ns.adobe.com/AdobeSVGViewerExtensions/3.0/"
	 x="0px" y="0px" width="456px" height="348px" viewBox="-9.229 -3.785 456 348"
	 overflow="visible" enable-background="new -9.229 -3.785 456 348" xml:space="preserve">
<defs>
</defs>
<path fill="none" stroke="#000000" stroke-width="16.6359" stroke-miterlimit="10" d="M276.009,56.382
	c0,0,13.484-48.837-58.473-48.055c-80.268-0.783-59.055,48.055-59.055,48.055"/>
<path d="M435,323.81c0,4.762-4.292,8.623-9.587,8.623H9.587c-5.295,0-9.587-3.861-9.587-8.623V62.056
	c0-4.762,4.292-8.623,9.587-8.623h415.825c5.295,0,9.587,3.861,9.587,8.623V323.81z"/>
<path d="M115,52.6c0,4.326-3.507,7.833-7.833,7.833H74.833C70.507,60.433,67,56.926,67,52.6v-0.335c0-4.326,3.507-7.833,7.833-7.833
	h32.334c4.326,0,7.833,3.507,7.833,7.833V52.6z"/>
<path d="M367,52.6c0,4.326-3.507,7.833-7.833,7.833h-32.333c-4.326,0-7.833-3.507-7.833-7.833v-0.335
	c0-4.326,3.507-7.833,7.833-7.833h32.333c4.326,0,7.833,3.507,7.833,7.833V52.6z"/>
</svg>
