<?xml version="1.0" encoding="utf-8"?>
<!-- Generator: Adobe Illustrator 15.0.0, SVG Export Plug-In  -->
<!DOCTYPE svg PUBLIC "-//W3C//DTD SVG 1.1//EN" "http://www.w3.org/Graphics/SVG/1.1/DTD/svg11.dtd" [
	<!ENTITY ns_flows "http://ns.adobe.com/Flows/1.0/">
]>
<svg version="1.1"
	 xmlns="http://www.w3.org/2000/svg" xmlns:xlink="http://www.w3.org/1999/xlink" xmlns:a="http://ns.adobe.com/AdobeSVGViewerExtensions/3.0/"
	 x="0px" y="0px" width="456px" height="348px" viewBox="-9.229 -3.785 456 348"
	 overflow="visible" enable-background="new -9.229 -3.785 456 348" xml:space="preserve">
<defs>
</defs>
<path fill="none" stroke="#000000" stroke-width="16.6359" stroke-miterlimit="10" d="M276.009,56.382
	c0,0,13.484-48.837-58.473-48.055c-80.268-0.783-59.055,48.055-59.055,48.055"/>
<path d="M435,323.81c0,4.762-4.292,8.623-9.587,8.623H9.587c-5.295,0-9.587-3.861-9.587-8.623V62.056
	c0-4.762,4.292-8.623,9.587-8.623h415.825c5.295,0,9.587,3.861,9.587,8.623V323.81z"/>
<path d="M115,52.6c0,4.326-3.507,7.833-7.833,7.833H74.833C70.507,60.433,67,56.926,67,52.6v-0.335c0-4.326,3.507-7.833,7.833-7.833
	h32.334c4.326,0,7.833,3.507,7.833,7.833V52.6z"/>
<path d="M367,52.6c0,4.326-3.507,7.833-7.833,7.833h-32.333c-4.326,0-7.833-3.507-7.833-7.833v-0.335
	c0-4.326,3.507-7.833,7.833-7.833h32.333c4.326,0,7.833,3.507,7.833,7.833V52.6z"/>
<g>
	<g>
		<g>
			<path fill="none" stroke="#3FD9FF" stroke-width="6" stroke-linecap="square" d="M95.199,195.87
				c-1.299,9.176-5.407,16.82-12.322,22.928c-4.275,3.764-8.755,6.38-13.439,7.85c-4.378,1.471-10.585,2.205-18.62,2.205H34.402
				v-79.2h16.619c7.968,0,14.261,0.789,18.878,2.36c4.958,1.538,9.455,4.156,13.491,7.848c6.597,6.017,10.531,13.561,11.804,22.631"
				/>
			<path fill="none" stroke="#3FD9FF" stroke-width="6" stroke-linecap="square" stroke-dasharray="13.4174,0" d="M95.194,182.491
				c0.304,2.167,0.456,4.421,0.456,6.763c0,2.288-0.15,4.493-0.451,6.616"/>
		</g>
		<path fill="none" stroke="#3FD9FF" stroke-width="6" stroke-linecap="square" d="M46.354,217.619h5.386
			c5.369,0,9.832-0.564,13.387-1.693c3.558-1.196,6.772-3.094,9.645-5.693c5.881-5.368,8.823-12.362,8.823-20.979
			c0-8.688-2.907-15.731-8.72-21.135c-5.232-4.821-12.944-7.231-23.135-7.231h-5.386V217.619z"/>
	</g>
</g>
<path fill="#FFFFFF" d="M277.696,217.619h29.496v11.234h-53.193l27.496-33.289c2.699-3.319,4.964-6.188,6.795-8.62
	c1.829-2.429,3.223-4.463,4.18-6.104c1.95-3.213,2.924-6.104,2.924-8.669c0-3.692-1.299-6.788-3.9-9.284
	c-2.598-2.495-5.814-3.746-9.643-3.746c-8.002,0-12.583,4.738-13.747,14.21h-11.899c1.914-16.69,10.34-25.033,25.289-25.033
	c7.213,0,13.265,2.291,18.156,6.874c4.924,4.584,7.39,10.259,7.39,17.031c0,4.309-1.148,8.532-3.439,12.669
	c-1.162,2.155-2.864,4.712-5.103,7.669c-2.241,2.958-5.071,6.456-8.491,10.49L277.696,217.619z"/>
<path fill="#FFFFFF" d="M321.107,223.108c0-1.917,0.701-3.573,2.104-4.976c1.401-1.405,3.079-2.104,5.027-2.104
	c1.948,0,3.623,0.7,5.027,2.104c1.401,1.403,2.102,3.079,2.102,5.027c0,1.983-0.701,3.676-2.102,5.077
	c-1.37,1.37-3.044,2.053-5.027,2.053c-2.02,0-3.713-0.683-5.079-2.053C321.791,226.869,321.107,225.16,321.107,223.108z"/>
<path fill="#FFFFFF" d="M344.717,188.74c0-12.619,2.939-22.691,8.823-30.213c5.266-6.804,11.643-10.209,19.133-10.209
	s13.868,3.405,19.134,10.209c5.88,7.521,8.822,17.765,8.822,30.726c0,12.925-2.941,23.15-8.822,30.674
	c-5.266,6.805-11.629,10.207-19.081,10.207c-7.457,0-13.851-3.402-19.186-10.207C347.657,212.404,344.717,202.006,344.717,188.74z
	 M356.516,188.791c0,8.789,1.517,16.091,4.556,21.905c3.04,5.711,6.917,8.565,11.627,8.565c4.679,0,8.552-2.854,11.628-8.565
	c3.073-5.677,4.608-12.844,4.608-21.496c0-8.651-1.535-15.831-4.608-21.543c-3.076-5.675-6.949-8.517-11.628-8.517
	c-4.645,0-8.5,2.842-11.574,8.517C358.051,173.301,356.516,180.345,356.516,188.791z"/>
<g>
	<g>
		<g>
			<path fill="none" stroke="#3FD9FF" stroke-width="6" stroke-linecap="square" d="M244.523,195.871
				c-1.3,9.176-5.407,16.819-12.322,22.927c-4.275,3.764-8.756,6.38-13.439,7.85c-4.378,1.471-10.585,2.205-18.619,2.205h-16.416
				v-79.2h16.619c7.969,0,14.262,0.789,18.878,2.36c4.958,1.538,9.454,4.156,13.491,7.848c6.596,6.017,10.531,13.561,11.804,22.631"
				/>
			<path fill="none" stroke="#3FD9FF" stroke-width="6" stroke-linecap="square" stroke-dasharray="13.4179,0" d="M244.519,182.491
				c0.304,2.167,0.456,4.421,0.456,6.763c0,2.288-0.15,4.493-0.451,6.617"/>
		</g>
		<path fill="none" stroke="#3FD9FF" stroke-width="6" stroke-linecap="square" d="M195.679,217.619h5.386
			c5.369,0,9.832-0.564,13.387-1.693c3.559-1.196,6.772-3.094,9.645-5.693c5.882-5.368,8.824-12.362,8.824-20.979
			c0-8.688-2.908-15.731-8.721-21.135c-5.232-4.821-12.944-7.231-23.135-7.231h-5.386V217.619z"/>
	</g>
</g>
<g>
	<g>
		<polygon fill="none" stroke="#3FD9FF" stroke-width="6" points="150.244,210.468 117.777,210.468 109.328,228.887 97,228.887 
			134.526,148.284 170.727,228.887 158.201,228.887 		"/>
		<polygon fill="none" stroke="#3FD9FF" stroke-width="6" points="145.578,199.71 134.33,173.923 122.541,199.71 		"/>
	</g>
</g>
</svg>
