<?xml version="1.0" encoding="utf-8"?>
<!-- Generator: Adobe Illustrator 15.0.0, SVG Export Plug-In  -->
<!DOCTYPE svg PUBLIC "-//W3C//DTD SVG 1.1//EN" "http://www.w3.org/Graphics/SVG/1.1/DTD/svg11.dtd" [
	<!ENTITY ns_flows "http://ns.adobe.com/Flows/1.0/">
]>
<svg version="1.1"
	 xmlns="http://www.w3.org/2000/svg" xmlns:xlink="http://www.w3.org/1999/xlink" xmlns:a="http://ns.adobe.com/AdobeSVGViewerExtensions/3.0/"
	 x="0px" y="0px" width="456px" height="348px" viewBox="-9.229 -3.785 456 348"
	 overflow="visible" enable-background="new -9.229 -3.785 456 348" xml:space="preserve">
<defs>
</defs>
<path fill="none" stroke="#000000" stroke-width="16.6359" stroke-miterlimit="10" d="M276.009,56.382
	c0,0,13.484-48.837-58.473-48.055c-80.268-0.783-59.055,48.055-59.055,48.055"/>
<path d="M435,323.81c0,4.762-4.292,8.623-9.587,8.623H9.587c-5.295,0-9.587-3.861-9.587-8.623V62.056
	c0-4.762,4.292-8.623,9.587-8.623h415.825c5.295,0,9.587,3.861,9.587,8.623V323.81z"/>
<path d="M115,52.6c0,4.326-3.507,7.833-7.833,7.833H74.833C70.507,60.433,67,56.926,67,52.6v-0.335c0-4.326,3.507-7.833,7.833-7.833
	h32.334c4.326,0,7.833,3.507,7.833,7.833V52.6z"/>
<path d="M367,52.6c0,4.326-3.507,7.833-7.833,7.833h-32.333c-4.326,0-7.833-3.507-7.833-7.833v-0.335
	c0-4.326,3.507-7.833,7.833-7.833h32.333c4.326,0,7.833,3.507,7.833,7.833V52.6z"/>
<g>
	<g>
		<g>
			<path fill="none" stroke="#3FD9FF" stroke-width="6" stroke-linecap="square" d="M95.199,195.87
				c-1.299,9.176-5.407,16.82-12.322,22.928c-4.275,3.764-8.755,6.38-13.439,7.85c-4.378,1.471-10.585,2.205-18.62,2.205H34.402
				v-79.2h16.619c7.968,0,14.261,0.789,18.878,2.36c4.958,1.538,9.455,4.156,13.491,7.848c6.597,6.017,10.531,13.561,11.804,22.631"
				/>
			<path fill="none" stroke="#3FD9FF" stroke-width="6" stroke-linecap="square" stroke-dasharray="13.4174,0" d="M95.194,182.491
				c0.304,2.167,0.456,4.421,0.456,6.763c0,2.288-0.15,4.493-0.451,6.616"/>
		</g>
		<path fill="none" stroke="#3FD9FF" stroke-width="6" stroke-linecap="square" d="M46.354,217.619h5.386
			c5.369,0,9.832-0.564,13.387-1.693c3.558-1.196,6.772-3.094,9.645-5.693c5.881-5.368,8.823-12.362,8.823-20.979
			c0-8.688-2.907-15.731-8.72-21.135c-5.232-4.821-12.944-7.231-23.135-7.231h-5.386V217.619z"/>
	</g>
</g>
<path fill="#FFFFFF" d="M277.696,217.619h29.496v11.234h-53.193l27.496-33.289c2.699-3.319,4.964-6.188,6.795-8.62
	c1.829-2.429,3.223-4.463,4.18-6.104c1.95-3.213,2.924-6.104,2.924-8.669c0-3.692-1.299-6.788-3.9-9.284
	c-2.598-2.495-5.814-3.746-9.643-3.746c-8.002,0-12.583,4.738-13.747,14.21h-11.899c1.914-16.69,10.34-25.033,25.289-25.033
	c7.213,0,13.265,2.291,18.156,6.874c4.924,4.584,7.39,10.259,7.39,17.031c0,4.309-1.148,8.532-3.439,12.669
	c-1.162,2.155-2.864,4.712-5.103,7.669c-2.241,2.958-5.071,6.456-8.491,10.49L277.696,217.619z"/>
<path fill="#FFFFFF" d="M321.107,223.108c0-1.917,0.701-3.573,2.104-4.976c1.401-1.405,3.079-2.104,5.027-2.104
	c1.948,0,3.623,0.7,5.027,2.104c1.401,1.403,2.102,3.079,2.102,5.027c0,1.983-0.701,3.676-2.102,5.077
	c-1.37,1.37-3.044,2.053-5.027,2.053c-2.02,0-3.713-0.683-5.079-2.053C321.791,226.869,321.107,225.16,321.107,223.108z"/>
<path fill="#FFFFFF" d="M344.717,188.74c0-12.619,2.939-22.691,8.823-30.213c5.266-6.804,11.643-10.209,19.133-10.209
	s13.868,3.405,19.134,10.209c5.88,7.521,8.822,17.765,8.822,30.726c0,12.925-2.941,23.15-8.822,30.674
	c-5.266,6.805-11.629,10.207-19.081,10.207c-7.457,0-13.851-3.402-19.186-10.207C347.657,212.404,344.717,202.006,344.717,188.74z
	 M356.516,188.791c0,8.789,1.517,16.091,4.556,21.905c3.04,5.711,6.917,8.565,11.627,8.565c4.679,0,8.552-2.854,11.628-8.565
	c3.073-5.677,4.608-12.844,4.608-21.496c0-8.651-1.535-15.831-4.608-21.543c-3.076-5.675-6.949-8.517-11.628-8.517
	c-4.645,0-8.5,2.842-11.574,8.517C358.051,173.301,356.516,180.345,356.516,188.791z"/>
<g>
	<g>
		<g>
			<path fill="none" stroke="#3FD9FF" stroke-width="6" stroke-linecap="square" d="M244.523,195.871
				c-1.3,9.176-5.407,16.819-12.322,22.927c-4.275,3.764-8.756,6.38-13.439,7.85c-4.378,1.471-10.585,2.205-18.619,2.205h-16.416
				v-79.2h16.619c7.969,0,14.262,0.789,18.878,2.36c4.958,1.538,9.454,4.156,13.491,7.848c6.596,6.017,10.531,13.561,11.804,22.631"
				/>
			<path fill="none" stroke="#3FD9FF" stroke-width="6" stroke-linecap="square" stroke-dasharray="13.4179,0" d="M244.519,182.491
				c0.304,2.167,0.456,4.421,0.456,6.763c0,2.288-0.15,4.493-0.451,6.617"/>
		</g>
		<path fill="none" stroke="#3FD9FF" stroke-width="6" stroke-linecap="square" d="M195.679,217.619h5.386
			c5.369,0,9.832-0.564,13.387-1.693c3.559-1.196,6.772-3.094,9.645-5.693c5.882-5.368,8.824-12.362,8.824-20.979
			c0-8.688-2.908-15.731-8.721-21.135c-5.232-4.821-12.944-7.231-23.135-7.231h-5.386V217.619z"/>
	</g>
</g>
<g>
	<g>
		<polygon fill="none" stroke="#3FD9FF" stroke-width="6" points="150.244,210.468 117.777,210.468 109.328,228.887 97,228.887 
			134.526,148.284 170.727,228.887 158.201,228.887 		"/>
		<polygon fill="none" stroke="#3FD9FF" stroke-width="6" points="145.578,199.71 134.33,173.923 122.541,199.71 		"/>
	</g>
</g>
<path fill="#FFFFFF" d="M41.689,273.951v-13.457h2.022c0.901,0,1.618,0.069,2.153,0.209c0.541,0.14,0.997,0.375,1.369,0.706
	c0.377,0.343,0.677,0.77,0.897,1.281c0.227,0.517,0.34,1.04,0.34,1.569c0,0.964-0.369,1.781-1.107,2.449
	c0.714,0.244,1.278,0.671,1.691,1.281c0.418,0.604,0.627,1.307,0.627,2.109c0,1.052-0.372,1.941-1.116,2.667
	c-0.448,0.448-0.95,0.758-1.508,0.933c-0.61,0.169-1.375,0.253-2.292,0.253H41.689z M43.72,266.272h0.636
	c0.755,0,1.309-0.167,1.661-0.501s0.527-0.827,0.527-1.478c0-0.633-0.18-1.114-0.541-1.442s-0.883-0.492-1.569-0.492H43.72V266.272z
	 M43.72,272.042h1.255c0.918,0,1.592-0.18,2.022-0.541c0.453-0.389,0.68-0.883,0.68-1.481c0-0.581-0.218-1.069-0.654-1.464
	c-0.424-0.389-1.182-0.584-2.274-0.584H43.72V272.042z"/>
<path fill="#FFFFFF" d="M60.294,262.402h-5.395v3.233h5.238v1.909h-5.238v4.498h5.395v1.909h-7.426v-13.457h7.426V262.402z"/>
<path fill="#FFFFFF" d="M73.531,261.212v2.401c-1.174-0.982-2.388-1.473-3.643-1.473c-1.383,0-2.548,0.497-3.495,1.491
	c-0.953,0.988-1.429,2.196-1.429,3.625c0,1.412,0.476,2.603,1.429,3.574c0.953,0.97,2.121,1.456,3.504,1.456
	c0.714,0,1.322-0.116,1.821-0.349c0.279-0.116,0.568-0.273,0.867-0.471c0.299-0.198,0.615-0.436,0.946-0.715v2.454
	c-1.162,0.66-2.382,0.989-3.661,0.989c-1.923,0-3.565-0.671-4.924-2.014c-1.354-1.354-2.031-2.986-2.031-4.898
	c0-1.714,0.566-3.242,1.7-4.584c1.395-1.645,3.199-2.467,5.412-2.467C71.235,260.232,72.403,260.559,73.531,261.212z"/>
<path fill="#FFFFFF" d="M84.945,270.682h-5.761l-1.499,3.269h-2.188l6.659-14.303l6.424,14.303h-2.223L84.945,270.682z
	 M84.117,268.773l-1.996-4.576l-2.092,4.576H84.117z"/>
<path fill="#FFFFFF" d="M92.403,260.494v8.1c0,1.155,0.189,2,0.567,2.534c0.563,0.772,1.356,1.159,2.379,1.159
	c1.028,0,1.824-0.386,2.388-1.159c0.377-0.517,0.566-1.361,0.566-2.534v-8.1h2.031v8.663c0,1.418-0.442,2.586-1.325,3.504
	c-0.994,1.023-2.214,1.534-3.661,1.534s-2.665-0.511-3.652-1.534c-0.883-0.918-1.325-2.086-1.325-3.504v-8.663H92.403z"/>
<path fill="#FFFFFF" d="M111.793,262.489l-1.647,0.976c-0.308-0.534-0.602-0.883-0.88-1.046c-0.291-0.186-0.666-0.279-1.125-0.279
	c-0.563,0-1.031,0.16-1.403,0.48c-0.372,0.314-0.558,0.709-0.558,1.186c0,0.657,0.488,1.186,1.464,1.587l1.342,0.549
	c1.092,0.442,1.891,0.981,2.396,1.618c0.506,0.637,0.758,1.417,0.758,2.342c0,1.239-0.413,2.262-1.237,3.07
	c-0.831,0.814-1.862,1.221-3.094,1.221c-1.168,0-2.133-0.347-2.894-1.042c-0.75-0.694-1.217-1.669-1.403-2.924l2.057-0.453
	c0.093,0.79,0.256,1.336,0.488,1.639c0.418,0.581,1.028,0.872,1.83,0.872c0.633,0,1.16-0.212,1.578-0.636
	c0.418-0.424,0.628-0.961,0.628-1.611c0-0.261-0.037-0.501-0.109-0.719s-0.186-0.418-0.34-0.601
	c-0.154-0.183-0.353-0.354-0.597-0.514c-0.244-0.16-0.535-0.312-0.872-0.458l-1.299-0.54c-1.842-0.778-2.763-1.917-2.763-3.415
	c0-1.01,0.387-1.855,1.16-2.534c0.772-0.685,1.734-1.028,2.885-1.028C109.71,260.232,110.921,260.984,111.793,262.489z"/>
<path fill="#FFFFFF" d="M122.642,262.402h-5.395v3.233h5.238v1.909h-5.238v4.498h5.395v1.909h-7.426v-13.457h7.426V262.402z"/>
<path fill="#FFFFFF" d="M137.414,268.137l-4.393-7.644h2.336l3.077,5.377l3.085-5.377h2.336l-4.411,7.644v5.813h-2.031V268.137z"/>
<path fill="#FFFFFF" d="M144.681,267.161c0-1.894,0.694-3.521,2.083-4.881c1.383-1.36,3.044-2.04,4.985-2.04
	c1.917,0,3.562,0.686,4.933,2.057c1.377,1.371,2.066,3.019,2.066,4.942c0,1.935-0.692,3.576-2.075,4.924
	c-1.389,1.354-3.065,2.031-5.029,2.031c-1.737,0-3.297-0.602-4.681-1.804C145.442,271.06,144.681,269.317,144.681,267.161z
	 M146.729,267.183c0,1.486,0.5,2.708,1.499,3.667c0.994,0.958,2.141,1.437,3.443,1.437c1.412,0,2.603-0.488,3.573-1.463
	c0.97-0.987,1.456-2.188,1.456-3.605c0-1.434-0.479-2.636-1.438-3.605c-0.953-0.975-2.133-1.463-3.539-1.463
	c-1.4,0-2.583,0.488-3.547,1.463C147.211,264.576,146.729,265.767,146.729,267.183z"/>
<path fill="#FFFFFF" d="M163.958,260.494v8.1c0,1.155,0.189,2,0.567,2.534c0.563,0.772,1.356,1.159,2.379,1.159
	c1.028,0,1.824-0.386,2.388-1.159c0.377-0.517,0.566-1.361,0.566-2.534v-8.1h2.031v8.663c0,1.418-0.442,2.586-1.325,3.504
	c-0.994,1.023-2.214,1.534-3.661,1.534s-2.665-0.511-3.652-1.534c-0.883-0.918-1.325-2.086-1.325-3.504v-8.663H163.958z"/>
<path fill="#FFFFFF" d="M180.297,268.216l4.166,5.735h-2.484l-3.844-5.508h-0.366v5.508h-2.031v-13.457h2.379
	c1.778,0,3.062,0.334,3.853,1.002c0.872,0.744,1.307,1.726,1.307,2.946c0,0.953-0.273,1.772-0.819,2.458
	C181.912,267.585,181.191,268.024,180.297,268.216z M177.769,266.673h0.645c1.923,0,2.885-0.735,2.885-2.205
	c0-1.377-0.936-2.065-2.807-2.065h-0.724V266.673z"/>
<path fill="#FFFFFF" d="M195.872,273.951v-13.457h2.824c1.354,0,2.423,0.133,3.207,0.401c0.843,0.261,1.607,0.706,2.292,1.333
	c1.389,1.267,2.083,2.931,2.083,4.994c0,2.068-0.723,3.742-2.17,5.02c-0.726,0.64-1.487,1.084-2.283,1.333
	c-0.744,0.25-1.798,0.375-3.164,0.375H195.872z M197.902,272.042h0.916c0.912,0,1.67-0.096,2.274-0.288
	c0.604-0.204,1.151-0.526,1.639-0.968c1-0.912,1.499-2.1,1.499-3.564c0-1.476-0.494-2.673-1.481-3.591
	c-0.889-0.819-2.199-1.229-3.931-1.229h-0.916V272.042z"/>
<path fill="#FFFFFF" d="M216.699,270.682h-5.761l-1.499,3.269h-2.188l6.659-14.303l6.424,14.303h-2.223L216.699,270.682z
	 M215.871,268.773l-1.996-4.576l-2.092,4.576H215.871z"/>
<path fill="#FFFFFF" d="M222.641,273.951v-13.457h2.824c1.354,0,2.423,0.133,3.207,0.401c0.843,0.261,1.607,0.706,2.292,1.333
	c1.389,1.267,2.083,2.931,2.083,4.994c0,2.068-0.723,3.742-2.17,5.02c-0.726,0.64-1.487,1.084-2.283,1.333
	c-0.744,0.25-1.798,0.375-3.164,0.375H222.641z M224.671,272.042h0.916c0.912,0,1.67-0.096,2.274-0.288
	c0.604-0.204,1.151-0.526,1.639-0.968c1-0.912,1.499-2.1,1.499-3.564c0-1.476-0.494-2.673-1.481-3.591
	c-0.889-0.819-2.199-1.229-3.931-1.229h-0.916V272.042z"/>
<path fill="#FFFFFF" d="M247.018,260.494v13.457h-2.031v-13.457H247.018z"/>
<path fill="#FFFFFF" d="M258.485,262.489l-1.647,0.976c-0.308-0.534-0.602-0.883-0.88-1.046c-0.291-0.186-0.666-0.279-1.125-0.279
	c-0.563,0-1.031,0.16-1.403,0.48c-0.372,0.314-0.558,0.709-0.558,1.186c0,0.657,0.488,1.186,1.464,1.587l1.342,0.549
	c1.092,0.442,1.891,0.981,2.396,1.618c0.506,0.637,0.758,1.417,0.758,2.342c0,1.239-0.413,2.262-1.237,3.07
	c-0.831,0.814-1.862,1.221-3.094,1.221c-1.168,0-2.133-0.347-2.894-1.042c-0.75-0.694-1.217-1.669-1.403-2.924l2.057-0.453
	c0.093,0.79,0.256,1.336,0.488,1.639c0.418,0.581,1.028,0.872,1.83,0.872c0.633,0,1.16-0.212,1.578-0.636
	c0.418-0.424,0.628-0.961,0.628-1.611c0-0.261-0.037-0.501-0.109-0.719s-0.186-0.418-0.34-0.601
	c-0.154-0.183-0.353-0.354-0.597-0.514c-0.244-0.16-0.535-0.312-0.872-0.458l-1.299-0.54c-1.842-0.778-2.763-1.917-2.763-3.415
	c0-1.01,0.387-1.855,1.16-2.534c0.772-0.685,1.734-1.028,2.885-1.028C256.402,260.232,257.613,260.984,258.485,262.489z"/>
<path fill="#FFFFFF" d="M274.382,262.402v11.548h-2.031v-11.548h-3.094v-1.909h8.21v1.909H274.382z"/>
<path fill="#FFFFFF" d="M278.807,267.161c0-1.894,0.694-3.521,2.083-4.881c1.383-1.36,3.044-2.04,4.985-2.04
	c1.917,0,3.562,0.686,4.933,2.057c1.377,1.371,2.066,3.019,2.066,4.942c0,1.935-0.692,3.576-2.075,4.924
	c-1.389,1.354-3.065,2.031-5.029,2.031c-1.737,0-3.297-0.602-4.681-1.804C279.568,271.06,278.807,269.317,278.807,267.161z
	 M280.855,267.183c0,1.486,0.5,2.708,1.499,3.667c0.994,0.958,2.141,1.437,3.443,1.437c1.412,0,2.603-0.488,3.573-1.463
	c0.97-0.987,1.456-2.188,1.456-3.605c0-1.434-0.479-2.636-1.438-3.605c-0.953-0.975-2.133-1.463-3.539-1.463
	c-1.4,0-2.583,0.488-3.547,1.463C281.337,264.576,280.855,265.767,280.855,267.183z"/>
<path fill="#FFFFFF" d="M299.287,262.402v11.548h-2.031v-11.548h-3.094v-1.909h8.21v1.909H299.287z"/>
<path fill="#FFFFFF" d="M311.983,270.682h-5.761l-1.499,3.269h-2.188l6.659-14.303l6.424,14.303h-2.223L311.983,270.682z
	 M311.155,268.773l-1.996-4.576l-2.092,4.576H311.155z"/>
<path fill="#FFFFFF" d="M319.955,260.494v11.548h3.957v1.909h-5.988v-13.457H319.955z"/>
<path fill="#FFFFFF" d="M328.494,260.494v11.548h3.957v1.909h-5.988v-13.457H328.494z"/>
<path fill="#FFFFFF" d="M336.58,268.137l-4.393-7.644h2.336l3.077,5.377l3.085-5.377h2.336l-4.411,7.644v5.813h-2.031V268.137z"/>
<path fill="#FFFFFF" d="M353.958,273.951v-13.457h2.022c0.901,0,1.618,0.069,2.153,0.209c0.541,0.14,0.997,0.375,1.369,0.706
	c0.377,0.343,0.677,0.77,0.897,1.281c0.227,0.517,0.34,1.04,0.34,1.569c0,0.964-0.369,1.781-1.107,2.449
	c0.714,0.244,1.278,0.671,1.691,1.281c0.418,0.604,0.627,1.307,0.627,2.109c0,1.052-0.372,1.941-1.116,2.667
	c-0.448,0.448-0.95,0.758-1.508,0.933c-0.61,0.169-1.375,0.253-2.292,0.253H353.958z M355.989,266.272h0.636
	c0.755,0,1.309-0.167,1.661-0.501s0.527-0.827,0.527-1.478c0-0.633-0.18-1.114-0.541-1.442s-0.883-0.492-1.569-0.492h-0.715V266.272
	z M355.989,272.042h1.255c0.918,0,1.592-0.18,2.022-0.541c0.453-0.389,0.68-0.883,0.68-1.481c0-0.581-0.218-1.069-0.654-1.464
	c-0.424-0.389-1.182-0.584-2.274-0.584h-1.029V272.042z"/>
<path fill="#FFFFFF" d="M372.563,262.402h-5.395v3.233h5.238v1.909h-5.238v4.498h5.395v1.909h-7.426v-13.457h7.426V262.402z"/>
<path fill="#FFFFFF" d="M379.568,262.402v11.548h-2.031v-11.548h-3.094v-1.909h8.21v1.909H379.568z"/>
<path fill="#FFFFFF" d="M392.265,270.682h-5.761l-1.499,3.269h-2.188l6.659-14.303l6.424,14.303h-2.223L392.265,270.682z
	 M391.437,268.773l-1.996-4.576l-2.092,4.576H391.437z"/>
</svg>
